<mxfile host="65bd71144e">
    <diagram id="HgKUTFYxjPyo-m_LFHvR" name="第 1 页">
        <mxGraphModel dx="1678" dy="907" grid="1" gridSize="10" guides="1" tooltips="1" connect="1" arrows="1" fold="1" page="1" pageScale="1" pageWidth="827" pageHeight="1169" math="0" shadow="0">
            <root>
                <mxCell id="0"/>
                <mxCell id="1" parent="0"/>
                <mxCell id="2" value="" style="rounded=1;whiteSpace=wrap;html=1;" parent="1" vertex="1">
                    <mxGeometry x="190" y="140" width="410" height="430" as="geometry"/>
                </mxCell>
                <mxCell id="3" value="" style="rounded=1;whiteSpace=wrap;html=1;" parent="1" vertex="1">
                    <mxGeometry x="790" y="140" width="810" height="430" as="geometry"/>
                </mxCell>
                <mxCell id="4" value="" style="edgeStyle=none;html=1;fillColor=#dae8fc;strokeColor=#6c8ebf;strokeWidth=2;" parent="1" source="6" target="17" edge="1">
                    <mxGeometry relative="1" as="geometry"/>
                </mxCell>
                <mxCell id="5" value="Push" style="edgeLabel;html=1;align=center;verticalAlign=middle;resizable=0;points=[];" parent="4" vertex="1" connectable="0">
                    <mxGeometry x="-0.4537" y="1" relative="1" as="geometry">
                        <mxPoint x="5" y="1" as="offset"/>
                    </mxGeometry>
                </mxCell>
                <mxCell id="6" value="moriarty-matrix-connector" style="rounded=0;whiteSpace=wrap;html=1;fillColor=#dae8fc;strokeColor=#6c8ebf;" parent="1" vertex="1">
                    <mxGeometry x="420" y="260" width="120" height="60" as="geometry"/>
                </mxCell>
                <mxCell id="7" value="Proxy Event" style="edgeStyle=none;html=1;exitX=0.114;exitY=1.036;exitDx=0;exitDy=0;entryX=1;entryY=0.5;entryDx=0;entryDy=0;dashed=1;exitPerimeter=0;fillColor=#ffe6cc;strokeColor=#d79b00;strokeWidth=2;" parent="1" source="14" target="20" edge="1">
                    <mxGeometry x="-0.0189" y="-20" relative="1" as="geometry">
                        <Array as="points">
                            <mxPoint x="844" y="475"/>
                        </Array>
                        <mxPoint as="offset"/>
                    </mxGeometry>
                </mxCell>
                <mxCell id="8" value="Job Spec" style="edgeStyle=none;html=1;entryX=0;entryY=0.5;entryDx=0;entryDy=0;entryPerimeter=0;exitX=0.75;exitY=1;exitDx=0;exitDy=0;fontStyle=2;fillColor=#dae8fc;strokeColor=#6c8ebf;strokeWidth=2;" parent="1" source="14" target="34" edge="1">
                    <mxGeometry x="0.2308" relative="1" as="geometry">
                        <Array as="points">
                            <mxPoint x="920" y="370"/>
                        </Array>
                        <mxPoint as="offset"/>
                    </mxGeometry>
                </mxCell>
                <mxCell id="9" value="Delete" style="edgeStyle=none;html=1;exitX=0;exitY=0.75;exitDx=0;exitDy=0;entryX=1;entryY=0.75;entryDx=0;entryDy=0;fillColor=#dae8fc;strokeColor=#6c8ebf;strokeWidth=2;" parent="1" source="14" target="17" edge="1">
                    <mxGeometry relative="1" as="geometry"/>
                </mxCell>
                <mxCell id="10" value="Push" style="edgeStyle=none;html=1;exitX=0.083;exitY=0.001;exitDx=0;exitDy=0;entryX=1;entryY=0.5;entryDx=0;entryDy=0;exitPerimeter=0;fillColor=#f8cecc;strokeColor=#b85450;strokeWidth=2;" parent="1" source="14" target="19" edge="1">
                    <mxGeometry relative="1" as="geometry">
                        <Array as="points">
                            <mxPoint x="840" y="190"/>
                        </Array>
                    </mxGeometry>
                </mxCell>
                <mxCell id="11" value="Endpoint Spec" style="edgeStyle=none;html=1;exitX=0.75;exitY=0;exitDx=0;exitDy=0;entryX=0;entryY=0.5;entryDx=0;entryDy=0;entryPerimeter=0;fontStyle=2;fillColor=#d5e8d4;strokeColor=#82b366;strokeWidth=2;" parent="1" source="14" target="40" edge="1">
                    <mxGeometry x="-0.2308" y="-10" relative="1" as="geometry">
                        <mxPoint x="985" y="10" as="sourcePoint"/>
                        <Array as="points">
                            <mxPoint x="920" y="190"/>
                        </Array>
                        <mxPoint as="offset"/>
                    </mxGeometry>
                </mxCell>
                <mxCell id="12" value="Spawn/Autoscale &lt;br&gt;Deployment" style="edgeStyle=none;html=1;entryX=-0.003;entryY=0.415;entryDx=0;entryDy=0;entryPerimeter=0;exitX=0.995;exitY=0.174;exitDx=0;exitDy=0;exitPerimeter=0;fillColor=#d5e8d4;strokeColor=#82b366;strokeWidth=2;" parent="1" source="14" target="39" edge="1">
                    <mxGeometry x="0.0904" y="10" relative="1" as="geometry">
                        <mxPoint x="950" y="294" as="sourcePoint"/>
                        <mxPoint as="offset"/>
                    </mxGeometry>
                </mxCell>
                <mxCell id="13" value="warmup model" style="edgeStyle=none;html=1;exitX=0.5;exitY=0;exitDx=0;exitDy=0;entryX=0.5;entryY=0;entryDx=0;entryDy=0;entryPerimeter=0;labelBackgroundColor=default;dashed=1;" parent="1" source="14" target="63" edge="1">
                    <mxGeometry relative="1" as="geometry">
                        <Array as="points">
                            <mxPoint x="890" y="120"/>
                            <mxPoint x="1530" y="120"/>
                        </Array>
                    </mxGeometry>
                </mxCell>
                <mxCell id="14" value="moriarty-matrix-operator" style="rounded=0;whiteSpace=wrap;html=1;fillColor=#dae8fc;strokeColor=#6c8ebf;" parent="1" vertex="1">
                    <mxGeometry x="830" y="260" width="120" height="60" as="geometry"/>
                </mxCell>
                <mxCell id="15" style="edgeStyle=none;html=1;exitX=0.994;exitY=0.324;exitDx=0;exitDy=0;entryX=0;entryY=1;entryDx=0;entryDy=0;exitPerimeter=0;fillColor=#dae8fc;strokeColor=#6c8ebf;strokeWidth=2;" parent="1" source="17" edge="1">
                    <mxGeometry relative="1" as="geometry">
                        <mxPoint x="830" y="280" as="targetPoint"/>
                    </mxGeometry>
                </mxCell>
                <mxCell id="16" value="Pool/Retry" style="edgeLabel;html=1;align=center;verticalAlign=middle;resizable=0;points=[];" parent="15" vertex="1" connectable="0">
                    <mxGeometry x="0.1333" y="-1" relative="1" as="geometry">
                        <mxPoint x="-3" y="-1" as="offset"/>
                    </mxGeometry>
                </mxCell>
                <mxCell id="17" value="Inference Job&lt;br&gt;Queue" style="shape=process;whiteSpace=wrap;html=1;backgroundOutline=1;fillColor=#f5f5f5;fontColor=#333333;strokeColor=#666666;" parent="1" vertex="1">
                    <mxGeometry x="630" y="260" width="120" height="60" as="geometry"/>
                </mxCell>
                <mxCell id="18" value="Pool" style="edgeStyle=none;html=1;exitX=0;exitY=0.5;exitDx=0;exitDy=0;entryX=0.75;entryY=0;entryDx=0;entryDy=0;fillColor=#f8cecc;strokeColor=#b85450;strokeWidth=2;" parent="1" source="19" target="37" edge="1">
                    <mxGeometry relative="1" as="geometry">
                        <Array as="points">
                            <mxPoint x="320" y="190"/>
                        </Array>
                    </mxGeometry>
                </mxCell>
                <mxCell id="19" value="Inference Result Queue" style="shape=process;whiteSpace=wrap;html=1;backgroundOutline=1;fillColor=#f5f5f5;fontColor=#333333;strokeColor=#666666;" parent="1" vertex="1">
                    <mxGeometry x="630" y="160" width="120" height="60" as="geometry"/>
                </mxCell>
                <mxCell id="20" value="Event Queue" style="shape=process;whiteSpace=wrap;html=1;backgroundOutline=1;fillColor=#f5f5f5;fontColor=#333333;strokeColor=#666666;" parent="1" vertex="1">
                    <mxGeometry x="630" y="445" width="120" height="60" as="geometry"/>
                </mxCell>
                <mxCell id="21" value="" style="shape=process;whiteSpace=wrap;html=1;backgroundOutline=1;" parent="1" vertex="1">
                    <mxGeometry x="960" y="430" width="390" height="110" as="geometry"/>
                </mxCell>
                <mxCell id="22" value="Inference Function&lt;br&gt;Queue" style="rounded=1;whiteSpace=wrap;html=1;" parent="1" vertex="1">
                    <mxGeometry x="1020" y="445" width="120" height="60" as="geometry"/>
                </mxCell>
                <mxCell id="23" style="edgeStyle=none;html=1;exitX=0.75;exitY=1;exitDx=0;exitDy=0;dashed=1;entryX=0.314;entryY=0.993;entryDx=0;entryDy=0;entryPerimeter=0;fillColor=#ffe6cc;strokeColor=#d79b00;strokeWidth=2;" parent="1" source="25" target="14" edge="1">
                    <mxGeometry relative="1" as="geometry">
                        <mxPoint x="860" y="320" as="targetPoint"/>
                        <Array as="points">
                            <mxPoint x="1260" y="550"/>
                            <mxPoint x="870" y="550"/>
                        </Array>
                    </mxGeometry>
                </mxCell>
                <mxCell id="24" value="Pool Event" style="edgeLabel;html=1;align=center;verticalAlign=middle;resizable=0;points=[];" parent="23" vertex="1" connectable="0">
                    <mxGeometry x="0.416" y="-4" relative="1" as="geometry">
                        <mxPoint as="offset"/>
                    </mxGeometry>
                </mxCell>
                <mxCell id="25" value="Event Stream" style="rounded=1;whiteSpace=wrap;html=1;" parent="1" vertex="1">
                    <mxGeometry x="1170" y="445" width="120" height="60" as="geometry"/>
                </mxCell>
                <mxCell id="26" value="Push" style="edgeStyle=none;html=1;exitX=0.5;exitY=1;exitDx=0;exitDy=0;entryX=0;entryY=0.5;entryDx=0;entryDy=0;fillColor=#dae8fc;strokeColor=#6c8ebf;strokeWidth=2;" parent="1" source="14" target="22" edge="1">
                    <mxGeometry relative="1" as="geometry">
                        <Array as="points">
                            <mxPoint x="890" y="475"/>
                        </Array>
                    </mxGeometry>
                </mxCell>
                <mxCell id="27" value="" style="shape=process;whiteSpace=wrap;html=1;backgroundOutline=1;" parent="1" vertex="1">
                    <mxGeometry x="340" y="420" width="230" height="110" as="geometry"/>
                </mxCell>
                <mxCell id="28" value="Pool" style="edgeStyle=none;html=1;exitX=0;exitY=0.5;exitDx=0;exitDy=0;entryX=0.5;entryY=1;entryDx=0;entryDy=0;fillColor=#ffe6cc;strokeColor=#d79b00;strokeWidth=2;" parent="1" source="29" target="37" edge="1">
                    <mxGeometry relative="1" as="geometry">
                        <Array as="points">
                            <mxPoint x="290" y="475"/>
                        </Array>
                    </mxGeometry>
                </mxCell>
                <mxCell id="29" value="Event Stream" style="rounded=1;whiteSpace=wrap;html=1;" parent="1" vertex="1">
                    <mxGeometry x="405" y="445" width="100" height="60" as="geometry"/>
                </mxCell>
                <mxCell id="30" value="push" style="edgeStyle=none;html=1;exitX=0.5;exitY=1;exitDx=0;exitDy=0;entryX=0.75;entryY=0;entryDx=0;entryDy=0;fillColor=#ffe6cc;strokeColor=#d79b00;strokeWidth=2;" parent="1" source="6" target="29" edge="1">
                    <mxGeometry relative="1" as="geometry"/>
                </mxCell>
                <mxCell id="31" value="pool" style="edgeStyle=none;html=1;exitX=0;exitY=0.5;exitDx=0;exitDy=0;entryX=0.75;entryY=1;entryDx=0;entryDy=0;fillColor=#ffe6cc;strokeColor=#d79b00;strokeWidth=2;" parent="1" source="20" target="6" edge="1">
                    <mxGeometry relative="1" as="geometry">
                        <Array as="points">
                            <mxPoint x="510" y="475"/>
                        </Array>
                    </mxGeometry>
                </mxCell>
                <mxCell id="32" value="Incluster-redis" style="text;html=1;align=center;verticalAlign=middle;resizable=0;points=[];autosize=1;strokeColor=none;fillColor=none;" parent="1" vertex="1">
                    <mxGeometry x="1105" y="510" width="100" height="30" as="geometry"/>
                </mxCell>
                <mxCell id="33" value="Incluster-redis" style="text;html=1;align=center;verticalAlign=middle;resizable=0;points=[];autosize=1;strokeColor=none;fillColor=none;" parent="1" vertex="1">
                    <mxGeometry x="405" y="505" width="100" height="30" as="geometry"/>
                </mxCell>
                <mxCell id="34" value="Inference Job Metadata" style="shape=cylinder3;whiteSpace=wrap;html=1;boundedLbl=1;backgroundOutline=1;size=15;fillColor=#fff2cc;strokeColor=#d6b656;" parent="1" vertex="1">
                    <mxGeometry x="960" y="330" width="70" height="80" as="geometry"/>
                </mxCell>
                <mxCell id="35" value="" style="edgeStyle=none;html=1;entryX=0;entryY=1;entryDx=0;entryDy=0;exitX=1;exitY=0.5;exitDx=0;exitDy=0;fillColor=#dae8fc;strokeColor=#6c8ebf;strokeWidth=2;" parent="1" source="37" edge="1">
                    <mxGeometry relative="1" as="geometry">
                        <mxPoint x="420" y="290" as="targetPoint"/>
                    </mxGeometry>
                </mxCell>
                <mxCell id="36" value="Invoke" style="edgeLabel;html=1;align=center;verticalAlign=middle;resizable=0;points=[];" parent="35" vertex="1" connectable="0">
                    <mxGeometry x="0.1833" y="1" relative="1" as="geometry">
                        <mxPoint x="-12" y="1" as="offset"/>
                    </mxGeometry>
                </mxCell>
                <mxCell id="37" value="Backend Service" style="rounded=0;whiteSpace=wrap;html=1;" parent="1" vertex="1">
                    <mxGeometry x="230" y="260" width="120" height="60" as="geometry"/>
                </mxCell>
                <mxCell id="38" value="Progress..." style="text;html=1;align=center;verticalAlign=middle;resizable=0;points=[];autosize=1;strokeColor=none;fillColor=none;fontStyle=2" parent="1" vertex="1">
                    <mxGeometry x="360" y="420" width="80" height="30" as="geometry"/>
                </mxCell>
                <mxCell id="39" value="" style="rounded=1;whiteSpace=wrap;html=1;fillColor=#d5e8d4;strokeColor=#82b366;" parent="1" vertex="1">
                    <mxGeometry x="1080" y="170" width="330" height="240" as="geometry"/>
                </mxCell>
                <mxCell id="40" value="Inference Endpoint Metadata" style="shape=cylinder3;whiteSpace=wrap;html=1;boundedLbl=1;backgroundOutline=1;size=15;fillColor=#fff2cc;strokeColor=#d6b656;" parent="1" vertex="1">
                    <mxGeometry x="980" y="150" width="70" height="80" as="geometry"/>
                </mxCell>
                <mxCell id="41" value="Deploy endpoint" style="edgeStyle=none;html=1;entryX=0.25;entryY=0;entryDx=0;entryDy=0;fillColor=#d5e8d4;strokeColor=#82b366;strokeWidth=2;" parent="1" source="42" target="14" edge="1">
                    <mxGeometry x="-0.1724" relative="1" as="geometry">
                        <Array as="points">
                            <mxPoint x="860" y="50"/>
                        </Array>
                        <mxPoint as="offset"/>
                    </mxGeometry>
                </mxCell>
                <mxCell id="42" value="Developer" style="shape=umlActor;verticalLabelPosition=bottom;verticalAlign=top;html=1;outlineConnect=0;" parent="1" vertex="1">
                    <mxGeometry x="750" y="20" width="30" height="60" as="geometry"/>
                </mxCell>
                <mxCell id="43" value="monitor" style="edgeStyle=none;html=1;exitX=1;exitY=0.75;exitDx=0;exitDy=0;entryX=0.25;entryY=0;entryDx=0;entryDy=0;dashed=1;fillColor=#d5e8d4;strokeColor=#82b366;strokeWidth=2;" parent="1" source="14" target="22" edge="1">
                    <mxGeometry relative="1" as="geometry">
                        <Array as="points">
                            <mxPoint x="1050" y="305"/>
                        </Array>
                    </mxGeometry>
                </mxCell>
                <mxCell id="44" value="" style="edgeStyle=none;html=1;exitX=1;exitY=0.25;exitDx=0;exitDy=0;entryX=0;entryY=0.25;entryDx=0;entryDy=0;fillColor=#dae8fc;strokeColor=#6c8ebf;strokeWidth=2;" parent="1" source="47" target="50" edge="1">
                    <mxGeometry relative="1" as="geometry"/>
                </mxCell>
                <mxCell id="45" value="Invoke" style="edgeLabel;html=1;align=center;verticalAlign=middle;resizable=0;points=[];labelBackgroundColor=none;" parent="44" vertex="1" connectable="0">
                    <mxGeometry x="-0.1929" y="2" relative="1" as="geometry">
                        <mxPoint x="4" y="-8" as="offset"/>
                    </mxGeometry>
                </mxCell>
                <mxCell id="46" value="Result" style="edgeStyle=none;html=1;exitX=0;exitY=0.5;exitDx=0;exitDy=0;entryX=1;entryY=0.5;entryDx=0;entryDy=0;fillColor=#f8cecc;strokeColor=#b85450;strokeWidth=2;" parent="1" source="47" target="14" edge="1">
                    <mxGeometry x="0.0026" relative="1" as="geometry">
                        <Array as="points"/>
                        <mxPoint as="offset"/>
                    </mxGeometry>
                </mxCell>
                <mxCell id="47" value="moriarty-sidecar" style="rounded=0;whiteSpace=wrap;html=1;fillColor=#ffe6cc;strokeColor=#d79b00;" parent="1" vertex="1">
                    <mxGeometry x="1100" y="250" width="105" height="80" as="geometry"/>
                </mxCell>
                <mxCell id="48" value="Publish Event" style="edgeStyle=none;html=1;exitX=0.75;exitY=1;exitDx=0;exitDy=0;entryX=1;entryY=0.25;entryDx=0;entryDy=0;dashed=1;fillColor=#ffe6cc;strokeColor=#d79b00;strokeWidth=2;" parent="1" source="50" target="25" edge="1">
                    <mxGeometry x="0.4377" relative="1" as="geometry">
                        <Array as="points">
                            <mxPoint x="1373" y="460"/>
                        </Array>
                        <mxPoint as="offset"/>
                    </mxGeometry>
                </mxCell>
                <mxCell id="49" value="Upload output" style="edgeStyle=none;html=1;labelBackgroundColor=default;exitX=1;exitY=0.75;exitDx=0;exitDy=0;entryX=1;entryY=0;entryDx=0;entryDy=27.5;entryPerimeter=0;" parent="1" source="50" target="56" edge="1">
                    <mxGeometry x="-0.8093" relative="1" as="geometry">
                        <mxPoint x="720" y="620" as="targetPoint"/>
                        <Array as="points">
                            <mxPoint x="1440" y="310"/>
                            <mxPoint x="1440" y="610"/>
                        </Array>
                        <mxPoint as="offset"/>
                    </mxGeometry>
                </mxCell>
                <mxCell id="50" value="inference-image" style="rounded=0;whiteSpace=wrap;html=1;" parent="1" vertex="1">
                    <mxGeometry x="1282.5" y="250" width="120" height="80" as="geometry"/>
                </mxCell>
                <mxCell id="51" value="Inference Container" style="text;html=1;align=center;verticalAlign=middle;resizable=0;points=[];autosize=1;strokeColor=none;fillColor=none;fontStyle=1" parent="1" vertex="1">
                    <mxGeometry x="1085" y="167.5" width="140" height="30" as="geometry"/>
                </mxCell>
                <mxCell id="52" value="Pool" style="edgeStyle=none;html=1;exitX=1;exitY=0.25;exitDx=0;exitDy=0;entryX=0.5;entryY=1;entryDx=0;entryDy=0;labelBackgroundColor=none;fillColor=#dae8fc;strokeColor=#6c8ebf;strokeWidth=2;" parent="1" source="22" target="47" edge="1">
                    <mxGeometry x="0.0217" y="13" relative="1" as="geometry">
                        <Array as="points">
                            <mxPoint x="1153" y="460"/>
                        </Array>
                        <mxPoint as="offset"/>
                    </mxGeometry>
                </mxCell>
                <mxCell id="53" value="GPU" style="sketch=0;html=1;verticalAlign=top;labelPosition=center;verticalLabelPosition=bottom;align=center;spacingTop=-6;fontSize=11;fontStyle=1;fontColor=#999999;shape=image;aspect=fixed;imageAspect=0;image=data:image/svg+xml,PHN2ZyB4bWxucz0iaHR0cDovL3d3dy53My5vcmcvMjAwMC9zdmciIHhtbG5zOnY9Imh0dHBzOi8vdmVjdGEuaW8vbmFubyIgd2lkdGg9IjIwIiBoZWlnaHQ9IjIwIiB2aWV3Qm94PSIwIDAgMjAgMjAiPiYjeGE7CTxzdHlsZSB0eXBlPSJ0ZXh0L2NzcyI+JiN4YTsJLnN0MHtmaWxsOiM0Mjg1ZjQ7fSYjeGE7CTwvc3R5bGU+JiN4YTsJPHBhdGggY2xhc3M9InN0MCIgZD0iTTEzLjMzIDB2Mi4zOGgtMi4xNlYwSDguODN2Mi4zOEg2LjY3VjBINC4yOXYyLjM4YTIgMiAwIDAgMC0xLjkxIDEuOTFIMHYyLjM4aDIuMzh2Mi4xNEgwdjIuMzhoMi4zOHYyLjE0SDB2Mi4zOGgyLjM4YTIgMiAwIDAgMCAxLjkxIDEuOTFWMjBoMi4zOHYtMi4zOGgyLjE2VjIwaDIuMzR2LTIuMzhoMi4xNlYyMGgyLjM4di0yLjM4YTIgMiAwIDAgMCAxLjkxLTEuOTFIMjB2LTIuMzhoLTIuMzh2LTIuMTRIMjBWOC44MWgtMi4zOFY2LjY3SDIwVjQuMjloLTIuMzhhMiAyIDAgMCAwLTEuOTEtMS45MVYwem0xLjUzIDE1LjI0SDUuMTRhLjM4LjM4IDAgMCAxLS4zOC0uMzhWNS4xNGEuMzguMzggMCAwIDEgLjM4LS4zOGg5LjcyYS4zOC4zOCAwIDAgMSAuMzguMzh2OS43MmEuMzguMzggMCAwIDEtLjM4LjM4em0tMi4wNy02LjEybC0zLjUgNC44NnYtMy42M0g3LjIybDMuNjEtNC44MXYzLjU4eiIvPiYjeGE7PC9zdmc+;" parent="1" vertex="1">
                    <mxGeometry x="1308" y="349" width="42" height="42" as="geometry"/>
                </mxCell>
                <mxCell id="54" value="Response" style="edgeStyle=none;html=1;exitX=0;exitY=0.75;exitDx=0;exitDy=0;entryX=1;entryY=0.75;entryDx=0;entryDy=0;labelBackgroundColor=none;fillColor=#f8cecc;strokeColor=#b85450;strokeWidth=2;" parent="1" source="50" target="47" edge="1">
                    <mxGeometry x="0.0968" y="10" relative="1" as="geometry">
                        <mxPoint x="1200" y="270" as="targetPoint"/>
                        <mxPoint as="offset"/>
                    </mxGeometry>
                </mxCell>
                <mxCell id="55" value="Load model and input data" style="edgeStyle=none;html=1;exitX=1;exitY=0;exitDx=0;exitDy=52.5;exitPerimeter=0;entryX=1;entryY=0.25;entryDx=0;entryDy=0;labelBackgroundColor=default;" parent="1" source="56" target="50" edge="1">
                    <mxGeometry relative="1" as="geometry">
                        <Array as="points">
                            <mxPoint x="1480" y="630"/>
                            <mxPoint x="1480" y="270"/>
                        </Array>
                    </mxGeometry>
                </mxCell>
                <mxCell id="56" value="S3 Storage" style="shape=cylinder3;whiteSpace=wrap;html=1;boundedLbl=1;backgroundOutline=1;size=15;labelBackgroundColor=none;" parent="1" vertex="1">
                    <mxGeometry x="660" y="580" width="60" height="80" as="geometry"/>
                </mxCell>
                <mxCell id="57" value="shared dir" style="shape=cube;whiteSpace=wrap;html=1;boundedLbl=1;backgroundOutline=1;darkOpacity=0.05;darkOpacity2=0.1;labelBackgroundColor=none;" parent="1" vertex="1">
                    <mxGeometry x="1302.5" y="190" width="80" height="50" as="geometry"/>
                </mxCell>
                <mxCell id="58" value="" style="edgeStyle=none;html=1;labelBackgroundColor=default;" parent="1" source="60" target="57" edge="1">
                    <mxGeometry relative="1" as="geometry"/>
                </mxCell>
                <mxCell id="59" value="Download Model" style="edgeLabel;html=1;align=center;verticalAlign=middle;resizable=0;points=[];labelBackgroundColor=none;" parent="58" vertex="1" connectable="0">
                    <mxGeometry x="0.08" y="-1" relative="1" as="geometry">
                        <mxPoint x="-6" y="-16" as="offset"/>
                    </mxGeometry>
                </mxCell>
                <mxCell id="60" value="moriarty-init" style="rounded=0;whiteSpace=wrap;html=1;fillColor=#ffe6cc;strokeColor=#d79b00;" parent="1" vertex="1">
                    <mxGeometry x="1100" y="197.5" width="100" height="35" as="geometry"/>
                </mxCell>
                <mxCell id="61" value="" style="edgeStyle=none;html=1;labelBackgroundColor=default;" parent="1" source="63" target="57" edge="1">
                    <mxGeometry relative="1" as="geometry"/>
                </mxCell>
                <mxCell id="62" value="Mount" style="edgeLabel;html=1;align=center;verticalAlign=middle;resizable=0;points=[];" parent="61" vertex="1" connectable="0">
                    <mxGeometry x="-0.1639" relative="1" as="geometry">
                        <mxPoint as="offset"/>
                    </mxGeometry>
                </mxCell>
                <mxCell id="63" value="Shared&lt;br&gt;High Preformance Storage" style="shape=cylinder3;whiteSpace=wrap;html=1;boundedLbl=1;backgroundOutline=1;size=15;labelBackgroundColor=none;" parent="1" vertex="1">
                    <mxGeometry x="1477" y="170" width="107.5" height="80" as="geometry"/>
                </mxCell>
                <mxCell id="64" value="Business Cluster" style="text;html=1;align=center;verticalAlign=middle;resizable=0;points=[];autosize=1;strokeColor=none;fillColor=none;fontStyle=1;fontSize=14;" parent="1" vertex="1">
                    <mxGeometry x="200" y="150" width="140" height="30" as="geometry"/>
                </mxCell>
                <mxCell id="65" value="Inference&lt;br&gt;Cluster" style="text;html=1;align=center;verticalAlign=middle;resizable=0;points=[];autosize=1;strokeColor=none;fillColor=none;fontStyle=1;fontSize=14;" parent="1" vertex="1">
                    <mxGeometry x="1486" y="520" width="90" height="50" as="geometry"/>
                </mxCell>
            </root>
        </mxGraphModel>
    </diagram>
</mxfile>
